<?xml version="1.0" encoding="UTF-8" standalone="no"?>
<!DOCTYPE svg PUBLIC "-//W3C//DTD SVG 20010904//EN"
              "http://www.w3.org/TR/2001/REC-SVG-20010904/DTD/svg10.dtd">

<svg xmlns="http://www.w3.org/2000/svg"
     width="7.07778in" height="1.35556in"
     viewBox="0 0 637 122">
  <path id="Vetor importado"
        fill="#49808C" stroke="none" stroke-width="1"
        d="M 90.05,34.62
           C 59.31,37.75 32.82,60.50 25.07,90.50
             22.69,99.75 22.32,117.62 24.57,120.25
             25.82,121.75 37.19,122.00 98.05,122.00
             152.41,122.00 170.53,121.62 171.66,120.50
             174.03,118.12 173.41,101.12 170.66,90.12
             164.41,65.88 145.66,45.87 121.29,37.62
             113.42,35.00 99.80,33.62 90.05,34.62 Z
           M 91.93,57.00
           C 91.93,57.75 88.80,60.25 85.05,62.62
             77.31,67.62 76.56,70.00 81.30,74.50
             87.05,79.87 83.68,84.87 77.43,80.12
             73.81,77.37 69.93,77.88 67.06,81.50
             64.18,85.12 63.68,88.88 65.81,90.25
             66.56,90.62 69.43,90.38 72.18,89.38
             76.81,87.88 77.18,88.00 80.30,91.00
             84.05,94.87 83.43,98.25 78.93,98.25
             76.81,98.25 75.18,99.38 73.68,101.88
             72.56,103.88 69.68,106.38 67.31,107.50
             61.81,110.12 60.68,113.00 64.31,116.00
             64.31,116.00 67.18,118.25 67.18,118.25
             67.18,118.25 60.93,118.25 60.93,118.25
             55.31,118.25 54.31,117.75 50.81,113.88
             46.56,109.00 46.69,109.38 46.44,96.12
             46.31,88.00 45.94,86.88 42.56,83.25
             39.81,80.38 38.06,79.50 35.94,80.12
             35.94,80.12 33.07,80.88 33.07,80.88
             33.07,80.88 35.57,76.12 35.57,76.12
             36.94,73.50 39.19,69.75 40.44,67.88
             40.44,67.88 42.81,64.25 42.81,64.25
             42.81,64.25 47.31,68.12 47.31,68.12
             49.69,70.25 52.19,72.00 52.81,72.00
             53.44,72.00 55.56,70.25 57.68,68.12
             62.56,62.88 64.56,61.88 76.93,58.75
             88.93,55.50 91.93,55.25 91.93,57.00 Z
           M 165.53,87.62
           C 168.28,96.50 170.03,110.62 168.91,115.12
             168.91,115.12 168.16,118.25 168.16,118.25
             168.16,118.25 136.92,118.25 136.92,118.25
             136.92,118.25 105.80,118.25 105.80,118.25
             105.80,118.25 107.92,114.50 107.92,114.50
             110.55,109.87 117.80,107.88 119.67,111.25
             121.17,113.88 124.17,113.75 129.17,110.75
             132.04,109.00 133.17,107.37 133.17,105.00
             133.17,100.12 130.92,97.00 127.42,97.00
             124.54,97.00 124.29,97.37 125.04,100.88
             125.54,103.00 125.42,104.62 124.92,104.25
             124.29,104.00 122.29,103.00 120.42,102.12
             117.30,100.50 116.67,100.62 114.42,102.62
             112.05,104.75 108.17,104.50 108.17,102.12
             108.17,101.38 109.30,100.25 110.80,99.38
             112.67,98.38 113.05,97.62 112.05,96.62
             110.42,95.00 116.67,92.00 121.79,92.00
             124.42,92.00 125.67,91.00 127.29,87.75
             129.17,83.75 129.17,83.38 127.04,81.50
             123.92,78.75 122.54,79.00 119.67,82.88
             117.67,85.50 116.67,86.00 115.67,85.00
             114.55,83.88 114.67,82.37 116.30,79.00
             119.04,73.25 122.92,72.12 128.54,75.62
             133.29,78.50 134.42,78.12 134.42,73.25
             134.42,70.12 136.42,67.00 138.42,67.00
             138.92,67.00 139.41,69.25 139.41,72.00
             139.41,77.75 140.91,78.38 143.91,73.88
             145.04,72.12 146.91,70.88 148.04,71.00
             149.41,71.25 150.41,70.00 151.29,67.25
             151.29,67.25 152.41,63.25 152.41,63.25
             152.41,63.25 157.79,71.62 157.79,71.62
             160.78,76.25 164.28,83.38 165.53,87.62 Z
           M 69.43,23.75
           C 61.43,26.75 50.19,32.88 43.19,38.12
             23.94,52.62 8.32,82.00 8.20,104.00
             8.20,109.87 9.07,111.38 11.57,109.38
             12.57,108.50 13.20,105.38 13.20,101.38
             13.20,93.75 16.94,80.75 21.94,70.75
             31.69,51.50 49.06,36.12 69.31,28.88
             73.31,27.38 76.31,25.62 76.31,24.62
             76.31,22.12 74.56,21.88 69.43,23.75 Z
           M 35.69,24.12
           C 22.94,33.75 10.70,48.25 3.95,61.62
             0.20,69.12 0.07,69.50 2.45,69.50
             3.32,69.50 6.70,65.00 9.82,59.62
             16.20,48.62 27.69,35.62 37.19,28.75
             42.81,24.50 44.19,22.12 41.19,21.12
             40.56,21.00 38.06,22.25 35.69,24.12 Z
           M 562.94,21.00
           C 564.19,24.00 570.68,38.50 577.31,53.37
             583.93,68.25 589.30,81.00 589.30,81.75
             589.30,82.50 586.81,89.00 583.68,96.25
             583.68,96.25 578.18,109.62 578.18,109.62
             578.18,109.62 588.80,109.25 588.80,109.25
             588.80,109.25 599.55,108.88 599.55,108.88
             599.55,108.88 617.42,64.87 617.42,64.87
             627.30,40.62 635.79,19.62 636.17,18.25
             636.92,15.75 636.54,15.62 625.92,16.00
             625.92,16.00 614.92,16.38 614.92,16.38
             614.92,16.38 607.30,37.50 607.30,37.50
             607.30,37.50 599.68,58.62 599.68,58.62
             599.68,58.62 591.18,37.12 591.18,37.12
             591.18,37.12 582.56,15.75 582.56,15.75
             582.56,15.75 571.68,15.75 571.68,15.75
             571.68,15.75 560.69,15.75 560.69,15.75
             560.69,15.75 562.94,21.00 562.94,21.00 Z
           M 494.58,17.75
           C 482.83,23.62 476.71,34.75 476.71,50.38
             476.71,56.75 477.46,61.00 479.33,65.62
             486.95,83.12 507.95,90.50 525.57,81.75
             525.57,81.75 531.82,78.62 531.82,78.62
             531.82,78.62 531.82,81.62 531.82,81.62
             531.82,84.38 532.19,84.50 541.19,84.50
             541.19,84.50 550.56,84.50 550.56,84.50
             550.56,84.50 550.56,50.12 550.56,50.12
             550.56,50.12 550.56,15.75 550.56,15.75
             550.56,15.75 541.19,15.75 541.19,15.75
             532.69,15.75 531.82,16.00 531.82,18.25
             531.82,19.62 531.69,20.75 531.57,20.75
             531.32,20.75 528.44,19.38 525.07,17.62
             516.32,13.12 503.70,13.25 494.58,17.75 Z
           M 523.20,33.62
           C 534.19,41.00 534.69,59.25 524.07,65.75
             519.07,68.75 509.57,69.12 504.20,66.38
             495.83,62.00 492.58,47.50 498.08,38.50
             502.83,30.75 515.32,28.25 523.20,33.62 Z
           M 320.25,16.62
           C 312.37,19.25 303.87,27.00 299.75,35.00
             293.00,47.88 296.13,64.87 307.12,75.38
             321.12,88.88 346.61,88.38 360.36,74.38
             367.73,66.88 369.98,61.38 369.98,50.12
             369.98,42.12 369.36,39.00 367.11,34.88
             363.36,27.62 356.36,20.87 349.49,17.88
             341.74,14.50 328.12,13.88 320.25,16.62 Z
           M 342.99,34.38
           C 348.99,38.62 351.24,43.00 351.24,50.12
             351.24,61.00 343.61,69.00 333.24,68.75
             320.50,68.62 312.62,58.25 315.62,45.25
             318.37,33.12 333.24,27.25 342.99,34.38 Z
           M 231.02,16.25
           C 218.65,20.25 210.77,29.00 208.15,41.50
             204.77,57.62 212.52,73.00 227.27,79.62
             235.52,83.38 250.14,83.75 256.76,80.38
             262.01,77.75 261.88,77.75 261.88,80.75
             261.88,85.00 259.26,89.25 255.14,91.38
             249.64,94.38 237.02,93.50 229.27,89.75
             226.14,88.25 223.27,87.00 222.77,87.00
             221.77,87.00 214.40,97.75 214.40,99.12
             214.40,100.88 222.64,105.50 229.39,107.50
             233.27,108.62 240.64,109.50 246.76,109.50
             266.88,109.38 277.63,101.00 280.63,83.00
             281.26,78.62 281.88,61.75 281.88,45.38
             281.88,45.38 281.88,15.75 281.88,15.75
             281.88,15.75 271.88,15.75 271.88,15.75
             263.76,15.75 261.88,16.12 261.88,17.62
             261.88,19.38 261.39,19.25 257.89,17.50
             252.51,14.62 237.77,14.00 231.02,16.25 Z
           M 254.51,33.62
           C 260.39,37.50 263.38,43.75 262.76,50.62
             261.64,61.12 253.39,67.62 242.64,66.50
             231.77,65.25 226.39,59.50 226.39,48.88
             226.39,44.75 227.14,41.12 228.52,39.00
             234.02,30.75 246.39,28.12 254.51,33.62 Z
           M 414.47,29.00
           C 414.47,29.00 406.35,46.00 406.35,46.00
             406.35,46.00 400.85,30.87 400.85,30.87
             400.85,30.87 395.23,15.75 395.23,15.75
             395.23,15.75 385.48,15.75 385.48,15.75
             379.98,15.75 375.61,16.12 375.61,16.62
             375.61,18.37 403.48,85.75 404.23,85.75
             404.60,85.75 408.97,78.12 413.72,68.88
             418.60,59.62 422.72,52.00 423.10,52.00
             423.47,52.00 427.59,59.62 432.22,68.88
             436.84,78.12 441.09,85.75 441.59,85.75
             442.59,85.75 470.58,18.88 470.58,16.62
             470.58,16.12 466.21,15.75 460.84,15.75
             460.84,15.75 451.09,15.75 451.09,15.75
             451.09,15.75 445.71,30.12 445.71,30.12
             442.72,38.00 440.09,44.50 439.84,44.50
             439.59,44.50 435.72,37.12 431.22,28.25
             426.72,19.25 422.97,12.00 422.72,12.00
             422.60,12.00 418.85,19.62 414.47,29.00 Z
           M 56.31,12.25
           C 49.69,15.12 47.69,17.00 49.31,18.62
             50.19,19.50 62.18,15.25 65.31,12.88
             67.06,11.50 66.31,9.50 64.06,9.50
             63.18,9.62 59.81,10.75 56.31,12.25 Z
           M 82.55,4.38
           C 80.93,14.12 80.93,14.12 76.06,15.12
             68.18,16.50 53.44,23.25 43.69,29.75
             19.69,45.75 2.70,75.38 1.95,102.62
             1.45,117.00 1.82,120.75 3.82,120.75
             5.95,120.75 5.95,120.38 5.70,110.75
             5.07,86.25 17.32,58.37 36.44,40.87
             46.06,32.12 62.68,23.12 74.81,20.00
             82.93,18.00 83.30,18.00 89.30,20.62
             92.80,22.00 96.43,23.25 97.68,23.25
             99.67,23.25 99.67,23.37 97.55,25.75
             95.43,28.00 95.55,28.12 98.92,29.00
             100.80,29.50 104.92,29.12 108.05,28.25
             114.92,26.38 115.17,26.38 126.29,27.50
             134.04,28.37 135.54,28.12 138.17,26.00
             140.91,23.75 141.04,23.25 139.41,21.38
             137.29,18.75 130.54,15.75 127.04,15.75
             125.67,15.75 121.04,13.50 116.67,10.87
             109.42,6.38 99.42,3.12 99.42,5.25
             99.42,5.75 100.67,7.62 102.30,9.25
             102.30,9.25 105.05,12.38 105.05,12.38
             105.05,12.38 100.80,11.50 100.80,11.50
             98.55,11.12 95.55,10.75 94.30,10.75
             92.68,10.75 91.55,9.25 90.55,5.87
             89.55,2.38 88.30,0.87 86.18,0.38
             83.55,-0.12 83.18,0.50 82.55,4.38 Z" />
</svg>
